<svg width="80" height="20" viewBox="0 0 80 20" fill="none" xmlns="http://www.w3.org/2000/svg">
<g clip-path="url(#clip0_2966_2072)">
<path d="M2.70385 0V9.13057H2.75841L6.70506 0H9.40891L5.72295 8.00364L10.1 20H7.23856L4.1649 11.1239L2.70385 14.02V20.0061H0V0H2.70385Z" fill="#191919"/>
<path d="M14.2104 0V20H11.5066V0H14.2104Z" fill="#191919"/>
<path d="M51.9733 0L56.1867 20H53.4828L52.6886 15.7043H49.0027L48.2085 20H45.5046L49.718 0H51.9733ZM49.4816 13.0082H52.1855L50.8578 5.76189H50.8032L49.4755 13.0082H49.4816Z" fill="#191919"/>
<path d="M63.795 0V2.69615H60.6668V20H57.9629V2.69615H54.8347V0H63.795Z" fill="#191919"/>
<path d="M67.9055 0V20H65.2017V0H67.9055Z" fill="#191919"/>
<path d="M73.1555 0L77.2355 12.0509H77.2901V0H79.9939V20H77.4477L73.3131 7.9794H73.2585V20H70.5547V0H73.1555Z" fill="#191919"/>
<path d="M40.8123 0L37.969 10.5907H37.9145L35.053 0H31.8459V20H34.5498V7.84005H34.6044L34.6529 7.99152L34.5498 7.84005L37.9448 20L41.3397 7.84005L41.2367 7.99152L41.2852 7.84005H41.3397V20H44.0436V0H40.8123Z" fill="#191919"/>
<path d="M25.9351 0L23.0918 10.5907H23.0433L20.1758 0H16.9688V20H19.6726V7.84005H19.7272L19.7757 7.99152L19.6726 7.84005L23.0676 20L26.4625 7.84005L26.3595 7.99152L26.408 7.84005H26.4625V20H29.1664V0H25.9351Z" fill="#191919"/>
</g>
<defs>
<clipPath id="clip0_2966_2072">
<rect width="80" height="20" fill="white"/>
</clipPath>
</defs>
</svg>
